<?xml version="1.0" encoding="UTF-8"?>
<svg version="1.1" xmlns="http://www.w3.org/2000/svg" width="1245" height="474">
<path d="M0 0 C2.22410338 -0.01403055 4.4481663 -0.0366941 6.67210388 -0.06726074 C12.67226717 -0.12393063 18.66502708 -0.05638725 24.66447973 0.03787994 C30.95825839 0.11870376 37.25175865 0.09477901 43.54592896 0.08544922 C54.10650369 0.08566301 64.66452179 0.16389614 75.22412109 0.29296875 C86.070882 0.42550033 96.91465282 0.48196711 107.76220703 0.45703125 C120.87096143 0.4270452 133.97833689 0.45662748 147.08691788 0.54364014 C152.0812932 0.5762817 157.07501171 0.58718502 162.06948471 0.58087158 C167.94960599 0.57734952 173.82617218 0.6343695 179.70535469 0.73777771 C181.85901328 0.76636434 184.01305065 0.77478719 186.16685677 0.76130676 C203.11939675 0.6754551 203.11939675 0.6754551 207.89496136 4.94720078 C212.31098126 10.42044754 214.96101512 15.82897627 214.6237793 22.89160156 C214.62540652 24.03862864 214.62540652 24.03862864 214.62706661 25.20882797 C214.62045758 27.63398538 214.55250824 30.05255269 214.48095703 32.4765625 C214.46768891 33.99329642 214.45852924 35.51007188 214.45349121 37.02685547 C214.40671514 42.58885339 214.28106316 48.14996333 214.16455078 53.7109375 C213.97892578 66.1684375 213.79330078 78.6259375 213.60205078 91.4609375 C187.86205078 91.4609375 162.12205078 91.4609375 135.60205078 91.4609375 C132.60205078 84.4609375 132.60205078 84.4609375 131.60205078 81.4609375 C118.63255565 81.47579512 105.66344772 81.51731123 92.69415665 81.59302807 C86.67219291 81.62734403 80.65048412 81.65241526 74.62841797 81.65649414 C68.8186138 81.66076713 63.00938518 81.6891474 57.19976044 81.73436928 C54.98139547 81.74737619 52.76296173 81.75164073 50.54456329 81.74709129 C47.44102034 81.74220816 44.33917443 81.76817719 41.23583984 81.80151367 C40.31514709 81.79288803 39.39445435 81.78426239 38.44586182 81.77537537 C34.45130366 81.84748033 32.29473372 81.94702405 29.03129578 84.3682251 C26.97432674 88.819256 27.05136612 92.75294819 27.1003418 97.60375977 C27.09493881 98.62218964 27.08953583 99.64061951 27.08396912 100.68991089 C27.07147262 104.05268507 27.08797853 107.41460475 27.10595703 110.77734375 C27.10580208 113.11474146 27.1043137 115.45213944 27.10154724 117.78953552 C27.10016287 122.68622202 27.11272908 127.58261574 27.13549805 132.47924805 C27.16389813 138.75983961 27.16114143 145.03994524 27.14840794 151.32057285 C27.14145793 156.14609437 27.14923209 160.97150328 27.16166496 165.79701042 C27.16618493 168.11309312 27.16651152 170.42918788 27.16259956 172.74527168 C27.15969367 175.97960381 27.17616472 179.21326265 27.19799805 182.44750977 C27.1934964 183.40710098 27.18899475 184.3666922 27.18435669 185.35536194 C27.19426132 186.23712097 27.20416595 187.11888 27.21437073 188.02735901 C27.21680062 188.79148385 27.21923052 189.55560869 27.22173405 190.34288883 C27.71855212 193.1097533 28.63091016 194.46943023 30.60205078 196.4609375 C32.5672643 197.05733464 32.5672643 197.05733464 34.77697754 196.96887207 C35.62659561 196.98015137 36.47621368 196.99143066 37.35157776 197.00305176 C38.28050339 196.99495483 39.20942902 196.98685791 40.16650391 196.97851562 C41.14723373 196.9855249 42.12796356 196.99253418 43.13841248 196.99975586 C46.38699483 197.01739112 49.63470925 197.00569316 52.88330078 196.9921875 C55.13627287 196.99488081 57.38924382 196.99876189 59.64221191 197.00378418 C64.36673028 197.00968674 69.09094641 197.00109162 73.81542969 196.98242188 C79.87879747 196.95963223 85.9414571 196.97275121 92.00479889 196.99671173 C96.65787109 197.01114905 101.31077472 197.00657315 105.96385193 196.99620056 C108.19982486 196.99352757 110.43581298 196.99682304 112.67176819 197.00611877 C115.79412517 197.0162501 118.91532697 197.0008305 122.03759766 196.97851562 C122.96652328 196.98661255 123.89544891 196.99470947 124.8525238 197.00305176 C129.72242313 197.07124034 129.72242313 197.07124034 133.67556763 194.57922363 C134.78472362 192.04327923 134.98978818 190.16619644 135.00048828 187.3984375 C135.00435547 186.43679688 135.00822266 185.47515625 135.01220703 184.484375 C135.00060547 183.48664063 134.98900391 182.48890625 134.97705078 181.4609375 C134.99445313 179.96433594 134.99445313 179.96433594 135.01220703 178.4375 C135.00833984 177.47585938 135.00447266 176.51421875 135.00048828 175.5234375 C134.9954126 174.21052734 134.9954126 174.21052734 134.99023438 172.87109375 C134.48605207 169.74072411 133.94705547 168.63605415 131.60205078 166.4609375 C128.527103 166.05084318 125.80340009 165.89700451 122.72436523 165.91503906 C121.81684509 165.90470139 120.90932495 165.89436371 119.9743042 165.88371277 C116.97113444 165.85418742 113.96863579 165.85278354 110.96533203 165.8515625 C108.88452359 165.83658743 106.80372706 165.81986172 104.72294617 165.80145264 C99.24355537 165.75769138 93.76432492 165.73776055 88.28479004 165.72271729 C81.71178514 165.69974307 75.13895786 165.6473035 68.56609344 165.59977722 C58.57803271 165.53086867 48.59048262 165.49949543 38.60205078 165.4609375 C38.60205078 148.6309375 38.60205078 131.8009375 38.60205078 114.4609375 C96.35205078 114.4609375 154.10205078 114.4609375 213.60205078 114.4609375 C214.06611328 144.5321875 214.06611328 144.5321875 214.53955078 175.2109375 C214.67611084 181.5025293 214.8126709 187.79412109 214.95336914 194.27636719 C215.02111816 202.05712891 215.02111816 202.05712891 215.03370667 205.71856689 C215.05649638 208.23476145 215.10874334 210.750809 215.1856842 213.26593018 C215.72013382 231.68368776 213.31190594 242.64889509 200.58073616 256.27147675 C197.19263597 260.02048731 194.23883101 264.09621126 191.22705078 268.1484375 C185.84855515 275.21443313 185.84855515 275.21443313 184.60205078 276.4609375 C181.96166464 276.59202801 179.34621643 276.6577837 176.70402527 276.68212891 C175.86634229 276.69356682 175.02865932 276.70500473 174.16559201 276.71678925 C171.33610059 276.75379284 168.50658365 276.78326734 165.67700195 276.8125 C163.65693896 276.83675577 161.63687878 276.8612465 159.61682129 276.88595581 C141.13633607 277.10286533 122.65478328 277.22382005 104.17331982 277.32025146 C91.74550396 277.38653054 79.31924951 277.48107245 66.89233398 277.64746094 C56.05493592 277.79256092 45.21862094 277.88470595 34.3802641 277.91293526 C28.64418591 277.9295967 22.91099296 277.97202176 17.17580223 278.07745361 C11.77143416 278.17580315 6.37129983 278.20257941 0.96614838 278.1758461 C-1.01085422 278.1783644 -2.98802436 278.20634429 -4.96423149 278.26247787 C-19.46665489 278.6533096 -19.46665489 278.6533096 -24.35835624 274.99471092 C-27.91238685 271.47944038 -30.66848068 267.53583798 -33.26697195 263.28237724 C-34.85688559 260.72182012 -36.68349157 258.36224697 -38.52685547 255.98046875 C-39.67467746 254.4138641 -40.81934714 252.84494363 -41.96044922 251.2734375 C-43.12834867 249.67573059 -44.29631489 248.07807249 -45.46435547 246.48046875 C-45.9587915 245.80089111 -46.45322754 245.12131348 -46.96264648 244.42114258 C-48.34013611 242.44983755 -48.34013611 242.44983755 -49.95921993 240.8307209 C-51.98084284 237.50083219 -51.8488084 234.36846529 -51.85292053 230.584198 C-51.86536173 229.78493712 -51.87780292 228.98567623 -51.89062113 228.16219532 C-51.92838229 225.48032931 -51.94462379 222.79877667 -51.96069336 220.11669922 C-51.98276568 218.19458765 -52.00595078 216.27248859 -52.03016663 214.35040283 C-52.10363814 208.03058846 -52.14464602 201.71073422 -52.18310547 195.390625 C-52.19787728 193.21051085 -52.21274927 191.03039737 -52.22772026 188.85028458 C-52.28786642 179.77258406 -52.33980074 170.69490284 -52.36971378 161.61704826 C-52.41266145 148.63705088 -52.50309724 135.65945626 -52.6618796 122.6803416 C-52.76984103 113.54034771 -52.8233565 104.40098979 -52.83719915 95.26037419 C-52.84681261 89.80938733 -52.87928799 84.36090368 -52.9698658 78.9106102 C-53.59317779 39.36114614 -53.59317779 39.36114614 -45.2434082 29.90283203 C-44.00317698 28.78142979 -42.76042107 27.66281722 -41.5160017 26.54606438 C-38.49183806 23.73815981 -36.29087182 20.96399411 -34.13796902 17.44570732 C-24.74425849 2.21483114 -17.44115487 -0.46632975 0 0 Z " fill="#FEFEFE" transform="translate(744.39794921875,151.5390625)"/>
<path d="M0 0 C28.76501207 -0.25109244 57.5298946 -0.44568452 86.29578739 -0.56171862 C89.69401957 -0.57547593 93.09224958 -0.58971352 96.49047852 -0.60424805 C97.16698727 -0.60713346 97.84349603 -0.61001888 98.54050506 -0.61299173 C109.48582589 -0.66081985 120.43050937 -0.7475285 131.37545245 -0.84868076 C142.61114995 -0.95165188 153.84652981 -1.01184498 165.08272272 -1.03497344 C171.39210252 -1.04931097 177.70003824 -1.08298647 184.008955 -1.16303062 C189.9494746 -1.23778894 195.88795787 -1.26070977 201.8289032 -1.24418449 C204.00702553 -1.24720672 206.18521706 -1.26903726 208.36293221 -1.31126022 C224.61832572 -1.61092737 224.61832572 -1.61092737 230.30758762 2.23720074 C234.90311858 7.42312784 237.3461489 12.48479873 237.02172852 19.40893555 C237.02335574 20.5706501 237.02335574 20.5706501 237.02501583 21.75583363 C237.0183925 24.21865111 236.95037072 26.67502699 236.87890625 29.13671875 C236.86564268 30.67432715 236.85648019 32.21197645 236.85144043 33.74963379 C236.80461175 39.39621645 236.67895911 45.04192421 236.5625 50.6875 C236.376875 63.330625 236.19125 75.97375 236 89 C210.26 89 184.52 89 158 89 C157.34 87.02 156.68 85.04 156 83 C154.41790281 79.86920963 154.41790281 79.86920963 152.20054722 79.61968327 C151.1030057 79.61603842 151.1030057 79.61603842 149.98329163 79.61231995 C149.14346237 79.60241531 148.30363312 79.59251068 147.43835449 79.58230591 C146.05359924 79.58905838 146.05359924 79.58905838 144.64086914 79.59594727 C143.67003891 79.58908401 142.69920868 79.58222076 141.69895935 79.57514954 C138.47754447 79.556791 135.25661241 79.56073202 132.03515625 79.56640625 C129.80317525 79.5618487 127.57119566 79.55654441 125.33921814 79.55052185 C120.65585641 79.54157286 115.97266502 79.5440341 111.28930664 79.55395508 C105.27862043 79.56544506 99.26852164 79.54524146 93.25791264 79.51603794 C88.64688868 79.49771777 84.03600657 79.49796009 79.42495537 79.50367546 C77.20851251 79.5038292 74.99206035 79.49774186 72.77565193 79.48538399 C69.67956513 79.47055546 66.58457711 79.48109153 63.48852539 79.49829102 C62.56737946 79.48862305 61.64623352 79.47895508 60.69717407 79.46899414 C55.85895796 79.39597733 55.85895796 79.39597733 51.93122864 81.87498474 C50.79013845 84.47889313 50.6120522 86.43804198 50.6015625 89.28125 C50.59769531 90.28800781 50.59382813 91.29476562 50.58984375 92.33203125 C50.60144531 93.37746094 50.61304688 94.42289062 50.625 95.5 C50.61339844 96.54542969 50.60179687 97.59085937 50.58984375 98.66796875 C50.59371094 99.67472656 50.59757812 100.68148437 50.6015625 101.71875 C50.60663818 103.09450195 50.60663818 103.09450195 50.61181641 104.49804688 C51.0963216 107.62082 51.72816865 108.79180044 54 111 C56.56296112 111.40525982 58.70448607 111.54744992 61.27018738 111.51898193 C62.38884208 111.53023381 62.38884208 111.53023381 63.53009588 111.541713 C66.03621325 111.56205934 68.54143185 111.55387432 71.04760742 111.54589844 C72.84113972 111.55462971 74.63466422 111.56511393 76.42817688 111.57722473 C81.3039384 111.60516004 86.17944669 111.60848776 91.05527663 111.60750484 C96.14826279 111.61062749 101.2411338 111.63623213 106.33406067 111.65948486 C115.9812687 111.70009818 125.62840905 111.72039809 135.27568942 111.73345876 C146.25747306 111.74931077 157.23914121 111.78771877 168.22085798 111.82805204 C190.81388948 111.91052403 213.40684766 111.9615926 236 112 C236 128.83 236 145.66 236 163 C175.61 163 115.22 163 53 163 C51.04971432 166.90057137 50.74418535 168.32920061 50.734375 172.5 C50.73179687 173.551875 50.72921875 174.60375 50.7265625 175.6875 C50.73816406 177.3271875 50.73816406 177.3271875 50.75 179 C50.74226563 180.093125 50.73453125 181.18625 50.7265625 182.3125 C50.73042969 183.8903125 50.73042969 183.8903125 50.734375 185.5 C50.73775879 186.93859375 50.73775879 186.93859375 50.74121094 188.40625 C51.00963003 191.09651833 51.74009256 192.64635941 53 195 C66.11712345 194.96200749 79.23396006 194.90273994 92.35085773 194.81609726 C98.44119172 194.77654112 104.53137936 194.74439257 110.62182617 194.72900391 C116.49640622 194.71389094 122.37058412 194.67954092 128.24498558 194.63169098 C130.48929543 194.61682175 132.73366267 194.60895583 134.97802162 194.60811615 C138.11510018 194.60576142 141.25105376 194.57880205 144.38793945 194.54589844 C145.32157822 194.5509288 146.25521698 194.55595917 147.21714783 194.56114197 C152.03222165 194.59934384 152.03222165 194.59934384 156.03825378 192.27838135 C157.24965937 189.62123011 157.24965937 189.62123011 158 185 C183.74 185 209.48 185 236 185 C236.165 197.643125 236.33 210.28625 236.5 223.3125 C236.57283203 227.28450439 236.64566406 231.25650879 236.72070312 235.34887695 C236.75683594 240.25036621 236.75683594 240.25036621 236.7635498 242.55485535 C236.77572628 244.14288845 236.80363772 245.73085385 236.84460449 247.31840515 C236.90399138 249.74390236 236.91122383 252.16493953 236.90820312 254.59106445 C236.93698799 255.28221753 236.96577286 255.97337061 236.99542999 256.68546772 C236.90024113 262.47353261 234.62413611 267.243739 231.07322311 271.74518681 C224.09943292 276.86183261 214.68056029 275.58376596 206.38427734 275.53442383 C204.15947855 275.56080437 201.9347299 275.59174974 199.71005249 275.62690735 C193.67625607 275.70689187 187.64430691 275.71632007 181.61005735 275.70810151 C176.5655959 275.70667101 171.52152096 275.73726614 166.47716296 275.76703948 C153.88841295 275.83975499 141.30080464 275.84207187 128.71201248 275.81406131 C117.80522272 275.79219032 106.90151126 275.86580002 95.99542205 275.98424093 C84.77387013 276.10515456 73.55374324 276.15683838 62.33139002 276.14096659 C56.03986258 276.13296855 49.75135534 276.15175089 43.46036911 276.2393589 C37.53703873 276.31906364 31.62003416 276.31093166 25.69668961 276.23716545 C23.53201545 276.22462266 21.36690518 276.24235807 19.20280457 276.29373932 C3.33003703 276.64419011 3.33003703 276.64419011 -2.23822927 272.22275138 C-6.37030885 267.94973708 -9.62050676 263.19882102 -12.69256473 258.127478 C-14.42437684 255.30944774 -16.37406687 252.73809439 -18.39453125 250.12109375 C-19.53648288 248.5618176 -20.67596983 247.00073217 -21.8125 245.4375 C-22.98497866 243.83152112 -24.15811686 242.22602346 -25.33203125 240.62109375 C-25.82421143 239.9448999 -26.3163916 239.26870605 -26.82348633 238.57202148 C-27.90982522 237.04269791 -27.90982522 237.04269791 -29 236 C-29.1287626 233.50136601 -29.19235465 231.02914842 -29.21446228 228.52871704 C-29.2305608 227.34085431 -29.2305608 227.34085431 -29.24698454 226.12899435 C-29.28163096 223.45403387 -29.30877319 220.77905258 -29.33569336 218.10400391 C-29.35831473 216.19381935 -29.38118325 214.28363771 -29.40428162 212.37345886 C-29.60714307 194.8647806 -29.71864386 177.35505529 -29.80750179 159.84546852 C-29.86852175 148.0781836 -29.955792 136.3123516 -30.11108398 124.54589844 C-30.24657831 114.27939259 -30.33198322 104.01389243 -30.35790926 93.74650323 C-30.3732142 88.3171412 -30.41217803 82.89044399 -30.51078606 77.46190262 C-31.21556507 36.99192967 -31.21556507 36.99192967 -20.29511929 24.96736336 C-19.10511038 23.79116156 -17.88998605 22.63955576 -16.64564896 21.52098656 C-14.27466201 19.32960834 -12.49890699 16.88693529 -10.60546875 14.27734375 C-9.46886922 12.82858843 -8.32973629 11.38181531 -7.1875 9.9375 C-6.01278095 8.44782925 -4.8395225 6.95700514 -3.66796875 5.46484375 C-2.92969849 4.53079712 -2.92969849 4.53079712 -2.17651367 3.57788086 C-0.92393238 1.99463694 -0.92393238 1.99463694 0 0 Z " fill="#FEFEFE" transform="translate(435,154)"/>
<path d="M0 0 C1.38454606 -0.01420511 1.38454606 -0.01420511 2.79706275 -0.02869719 C5.90921421 -0.05789164 9.02126239 -0.0725336 12.1335144 -0.08708191 C14.3572597 -0.10451497 16.58099941 -0.12267474 18.80473328 -0.14151001 C26.12504091 -0.19919535 33.44538314 -0.23470006 40.76583862 -0.26750183 C42.01037229 -0.27344793 43.25490596 -0.27939403 44.53715277 -0.28552032 C56.27028743 -0.34145221 68.00343244 -0.39047258 79.73666573 -0.41966724 C82.45504914 -0.42654643 85.17343231 -0.43351108 87.89181519 -0.44059753 C88.56745525 -0.44235195 89.24309532 -0.44410636 89.93920933 -0.44591393 C100.87865485 -0.47556007 111.81732697 -0.54987105 122.75640239 -0.64242236 C133.98880839 -0.7366741 145.22083345 -0.78842162 156.45367801 -0.80178469 C162.76014033 -0.81040061 169.06525845 -0.83755448 175.37134171 -0.90963173 C181.30621287 -0.97653459 187.23895048 -0.99131925 193.17412376 -0.96624184 C195.35102671 -0.96607485 197.52802554 -0.98471391 199.70458031 -1.02364731 C215.97654999 -1.29899733 215.97654999 -1.29899733 221.2748909 2.5536871 C225.41607807 7.80296566 227.38056004 13.07648404 227.10372925 19.72346497 C227.10469353 20.49794133 227.10565781 21.2724177 227.10665131 22.07036304 C227.10076517 24.53265189 227.04029256 26.98984875 226.97677612 29.45124817 C226.96498624 30.98886285 226.95684184 32.52650985 226.95236206 34.06416321 C226.91073754 39.71061424 226.79904679 45.35637398 226.69552612 51.00202942 C226.53052612 63.64515442 226.36552612 76.28827942 226.19552612 89.31452942 C200.45552612 89.31452942 174.71552612 89.31452942 148.19552612 89.31452942 C147.53552612 87.33452942 146.87552612 85.35452942 146.19552612 83.31452942 C144.61342893 80.18373905 144.61342893 80.18373905 142.39607334 79.93421268 C141.29853182 79.93056784 141.29853182 79.93056784 140.17881775 79.92684937 C139.33898849 79.91694473 138.49915924 79.9070401 137.63388062 79.89683533 C136.24912537 79.9035878 136.24912537 79.9035878 134.83639526 79.91047668 C133.86556503 79.90361343 132.8947348 79.89675018 131.89448547 79.88967896 C128.67307059 79.87132042 125.45213853 79.87526144 122.23068237 79.88093567 C119.99870138 79.87637812 117.76672179 79.87107383 115.53474426 79.86505127 C110.85138253 79.85610228 106.16819115 79.85856352 101.48483276 79.8684845 C95.47414655 79.87997448 89.46404776 79.85977088 83.45343876 79.83056736 C78.84241481 79.81224718 74.23153269 79.81248951 69.62048149 79.81820488 C67.40403863 79.81835862 65.18758647 79.81227128 62.97117805 79.79991341 C59.87509125 79.78508488 56.78010323 79.79562095 53.68405151 79.81282043 C52.76290558 79.80315247 51.84175964 79.7934845 50.8927002 79.78352356 C46.05448408 79.71050675 46.05448408 79.71050675 42.12675476 82.18951416 C40.98566457 84.79342255 40.80757832 86.7525714 40.79708862 89.59577942 C40.79322144 90.60253723 40.78935425 91.60929504 40.78536987 92.64656067 C40.79697144 93.69199036 40.808573 94.73742004 40.82052612 95.81452942 C40.80892456 96.85995911 40.797323 97.90538879 40.78536987 98.98249817 C40.78923706 99.98925598 40.79310425 100.99601379 40.79708862 102.03327942 C40.80216431 103.40903137 40.80216431 103.40903137 40.80734253 104.81257629 C41.28970993 107.92157073 41.94601938 109.10787287 44.19552612 111.31452942 C47.37669803 111.89460317 47.37669803 111.89460317 51.10816956 111.75949097 C51.81562641 111.75923099 52.52308327 111.75897102 53.25197822 111.75870317 C55.62907992 111.75323302 58.0049453 111.71933226 60.38180542 111.68586731 C62.08352255 111.6765957 63.78525103 111.66923634 65.48698425 111.66365051 C69.15557442 111.6484777 72.82383311 111.62164028 76.49228477 111.58642769 C82.295796 111.53273705 88.09902446 111.51673803 93.90275574 111.50823975 C110.40751736 111.47911344 126.91174797 111.41417898 143.41598511 111.2771759 C152.52848725 111.20185269 161.64027474 111.1658761 170.75309497 111.17320436 C176.51997369 111.17566758 182.28380627 111.12992042 188.05008066 111.04862702 C191.6443103 111.00964731 195.23735529 111.01688593 198.83169365 111.037117 C200.49421762 111.03732251 202.15686984 111.01876604 203.81893539 110.97972679 C216.103613 110.70606385 216.103613 110.70606385 220.96930313 114.44727802 C226.08958474 120.78559984 227.37996129 126.76853917 227.32589722 134.74250793 C227.36138168 136.36940804 227.36138168 136.36940804 227.39758301 138.0291748 C227.46292023 141.58477108 227.46927179 145.13728036 227.46896362 148.69343567 C227.4896256 151.19051325 227.51175572 153.68757907 227.53527832 156.18463135 C227.57405406 161.41062146 227.58101926 166.63554231 227.56808472 171.86164856 C227.5520579 178.51463543 227.64440674 185.16271366 227.7598629 191.81483555 C227.8343213 196.97227888 227.84363362 202.12840071 227.8353157 207.28631401 C227.84101138 209.73612341 227.86877395 212.18599632 227.92026901 214.63527107 C228.21344644 230.22086407 226.51004385 240.01726972 215.69445801 251.64886475 C215.09948643 252.26284056 214.50451485 252.87681637 213.89151382 253.50939751 C211.38798251 256.17404199 209.28608139 259.04881258 207.13302612 262.00202942 C206.15656128 263.3072052 206.15656128 263.3072052 205.16036987 264.63874817 C203.26292558 267.0985329 203.26292558 267.0985329 202.2334469 269.07512659 C200.6154233 271.83237322 199.36610014 273.92033136 196.24977148 274.96977437 C193.80755917 275.22863309 191.44815549 275.26203135 188.99232483 275.22360229 C188.06264729 275.23663893 187.13296976 275.24967556 186.17512017 275.26310724 C183.05775296 275.29807284 179.9426623 275.28295659 176.82516479 275.26789856 C174.5911103 275.28229438 172.35707306 275.29962416 170.12306213 275.31967163 C164.05255166 275.36445066 157.98281316 275.36436188 151.91217589 275.35360265 C146.84503417 275.34837771 141.77804599 275.36422128 136.71093255 275.37985224 C124.07191103 275.41818393 111.43335926 275.41280861 98.79435692 275.38787531 C87.82598492 275.36761354 76.85862714 275.40303408 65.89043792 275.46500594 C54.6216763 275.52818977 43.35337847 275.55328416 32.08439618 275.54010671 C25.76032506 275.53310817 19.43714473 275.54082028 13.11321068 275.58578682 C7.16427701 275.62640168 1.21733337 275.61858751 -4.73155022 275.5736599 C-6.91321177 275.56523929 -9.09501618 275.57383222 -11.2765274 275.60079193 C-27.5516657 275.78706901 -27.5516657 275.78706901 -32.88650322 272.29997253 C-37.21286769 267.35415484 -38.9782158 262.42278632 -38.712677 255.92732239 C-38.71364128 255.14305437 -38.71460556 254.35878635 -38.71559906 253.55075264 C-38.7097005 251.05079 -38.64916605 248.55580676 -38.58572388 246.05671692 C-38.57393792 244.49822787 -38.56579109 242.93970698 -38.56130981 241.38117981 C-38.51963978 235.6501417 -38.40794859 229.91978484 -38.30447388 224.18952942 C-38.13947388 211.36077942 -37.97447388 198.53202942 -37.80447388 185.31452942 C-12.06447388 185.31452942 13.67552612 185.31452942 40.19552612 185.31452942 C41.18552612 188.77952942 41.18552612 188.77952942 42.19552612 192.31452942 C44.55989989 194.67890319 45.00625448 194.56726925 48.2122345 194.58195496 C49.05206375 194.59048492 49.89189301 194.59901489 50.75717163 194.60780334 C51.6803418 194.60689697 52.60351196 194.6059906 53.55465698 194.60505676 C54.52548721 194.61177399 55.49631744 194.61849121 56.49656677 194.62541199 C59.71788599 194.64446873 62.93899774 194.64831997 66.16036987 194.65046692 C68.39235013 194.65688921 70.62432953 194.66361714 72.85630798 194.67063904 C77.53963168 194.68263082 82.22288151 194.68631788 86.90621948 194.68513489 C92.91687877 194.68493153 98.92706614 194.71224334 104.93761349 194.74667931 C109.54862152 194.76888077 114.15951474 194.77297451 118.77057076 194.77191544 C120.98702179 194.77428123 123.20347554 194.78315931 125.41987419 194.79858017 C128.51592247 194.81810468 131.61093697 194.81245543 134.70700073 194.80036926 C135.62814667 194.81160828 136.5492926 194.82284729 137.49835205 194.83442688 C142.33843169 194.917487 142.33843169 194.917487 146.26429749 192.43479919 C147.37878053 189.89728625 147.5832502 188.02323548 147.59396362 185.25202942 C147.59783081 184.29038879 147.601698 183.32874817 147.60568237 182.33796692 C147.59408081 181.34023254 147.58247925 180.34249817 147.57052612 179.31452942 C147.58792847 177.81792786 147.58792847 177.81792786 147.60568237 176.29109192 C147.60181519 175.32945129 147.597948 174.36781067 147.59396362 173.37702942 C147.58888794 172.06411926 147.58888794 172.06411926 147.58370972 170.72468567 C147.09666665 167.70073021 146.3589437 166.48550019 144.19552612 164.31452942 C141.29976066 163.75839877 141.29976066 163.75839877 137.93067932 163.92340088 C136.61735123 163.93694611 135.30402313 163.95049133 133.95089722 163.96444702 C132.49166354 163.99946495 131.03243517 164.034705 129.57321167 164.07014465 C128.03888158 164.09251267 126.50452072 164.11284883 124.97013855 164.13130188 C121.66162717 164.17361762 118.35352354 164.22677228 115.04529381 164.28715324 C109.80317306 164.37911489 104.56130199 164.42466642 99.31852722 164.45956421 C97.52200981 164.47201276 95.72549244 164.48446684 93.92897511 164.49692631 C93.02907624 164.50310887 92.12917737 164.50929144 91.20200884 164.51566136 C78.99737302 164.60249956 66.79457971 164.7242043 54.59176636 164.95539856 C46.3602343 165.11099058 38.13099452 165.19809053 29.89796096 165.20856243 C25.54422412 165.21689165 21.19703364 165.25942844 16.84500694 165.38633537 C-9.44016563 166.12411777 -9.44016563 166.12411777 -16.52135849 161.56549454 C-21.04306188 157.24741301 -23.83752981 152.25579193 -26.54051781 146.6717968 C-28.07804137 143.80432837 -29.97451306 141.72811511 -32.21464252 139.39978504 C-40.06907017 131.02685741 -39.33381957 121.14681221 -39.27322388 110.36921692 C-39.29016786 108.34821038 -39.30945991 106.32722232 -39.33096313 104.30625916 C-39.36359893 100.08468209 -39.35847881 95.86520517 -39.32791138 91.64363098 C-39.3002828 87.34925612 -39.32784845 83.06132722 -39.40994263 78.76765442 C-40.21657613 36.3618168 -40.21657613 36.3618168 -29.23654175 24.37921143 C-28.009041 23.17256418 -26.75566231 21.99140779 -25.47244263 20.8441925 C-23.18104412 18.7427936 -21.45156838 16.34419317 -19.66384888 13.81062317 C-18.62910995 12.45644305 -17.59279082 11.10346805 -16.55447388 9.75202942 C-16.01435669 9.04368958 -15.4742395 8.33534973 -14.91775513 7.60554504 C-10.15994385 1.39428768 -8.04033669 0.01546941 0 0 Z " fill="#FEFEFE" transform="translate(37.804473876953125,153.6854705810547)"/>
<path d="M0 0 C2.22379849 -0.0148726 4.44755821 -0.037051 6.67121887 -0.06593323 C12.67892604 -0.12182254 18.68139239 -0.07168308 24.68874264 0.00148559 C30.98792763 0.06338072 37.28685009 0.03786557 43.58624268 0.02497864 C54.15841259 0.01694023 64.72875293 0.07654125 75.30029297 0.17871094 C86.16069234 0.28365067 97.01854663 0.31894617 107.87939453 0.28125 C120.99871994 0.23581958 134.11679753 0.25083322 147.23609161 0.31987953 C152.23610684 0.34528932 157.23535544 0.34782319 162.23540497 0.3319912 C168.12357067 0.31676753 174.00836011 0.36148356 179.89581871 0.45208168 C182.05274689 0.47588679 184.21000971 0.4794739 186.36699104 0.46110535 C203.34815437 0.336386 203.34815437 0.336386 208.12396908 4.60368919 C212.53964207 10.07637651 215.18802453 15.48926637 214.85083008 22.55102539 C214.8524573 23.69805246 214.8524573 23.69805246 214.85411739 24.8682518 C214.84750836 27.29340921 214.77955902 29.71197652 214.70800781 32.13598633 C214.6947397 33.65272025 214.68558002 35.16949571 214.68054199 36.6862793 C214.63376592 42.24827722 214.50811394 47.80938716 214.39160156 53.37036133 C214.20597656 65.82786133 214.02035156 78.28536133 213.82910156 91.12036133 C187.75910156 91.12036133 161.68910156 91.12036133 134.82910156 91.12036133 C133.83910156 87.65536133 133.83910156 87.65536133 132.82910156 84.12036133 C130.46472779 81.75598756 130.0183732 81.86762149 126.81239319 81.85293579 C125.97256393 81.84440582 125.13273468 81.83587585 124.26745605 81.8270874 C123.34428589 81.82799377 122.42111572 81.82890015 121.4699707 81.82983398 C120.49914047 81.82311676 119.52831024 81.81639954 118.52806091 81.80947876 C115.3067417 81.79042202 112.08562995 81.78657078 108.86425781 81.78442383 C106.63227755 81.77800153 104.40029816 81.77127361 102.1683197 81.76425171 C97.484996 81.75225992 92.80174618 81.74857287 88.1184082 81.74975586 C82.10774892 81.74995922 76.09756154 81.7226474 70.0870142 81.68821144 C65.47600617 81.66600998 60.86511295 81.66191623 56.25405693 81.66297531 C54.03760589 81.66060952 51.82115215 81.65173144 49.60475349 81.63631058 C46.50870522 81.61678607 43.41369072 81.62243531 40.31762695 81.63452148 C39.39648102 81.62328247 38.47533508 81.61204346 37.52627563 81.60046387 C32.686196 81.51740375 32.686196 81.51740375 28.7603302 84.00009155 C27.64584715 86.5376045 27.44137749 88.41165527 27.43066406 91.18286133 C27.42679688 92.14450195 27.42292969 93.10614258 27.41894531 94.09692383 C27.43054687 95.0946582 27.44214844 96.09239258 27.45410156 97.12036133 C27.4425 98.1180957 27.43089844 99.11583008 27.41894531 100.14379883 C27.4228125 101.10543945 27.42667969 102.06708008 27.43066406 103.05786133 C27.43573975 104.37077148 27.43573975 104.37077148 27.44091797 105.71020508 C27.90266003 108.5770715 29.01805355 109.89986419 30.82910156 112.12036133 C30.82910156 112.78036133 30.82910156 113.44036133 30.82910156 114.12036133 C78.67910156 114.12036133 126.52910156 114.12036133 175.82910156 114.12036133 C175.82910156 117.42036133 175.82910156 120.72036133 175.82910156 124.12036133 C173.09775708 126.68058544 171.17380417 128.04022588 167.95410156 129.74536133 C166.20361532 130.75884488 164.45364314 131.77321666 162.70410156 132.78833008 C161.75664063 133.32119629 160.80917969 133.8540625 159.83300781 134.40307617 C154.45331235 137.47856202 149.2176012 140.78893445 143.95410156 144.05786133 C140.82722634 145.97883813 137.70074319 147.88916582 134.53466797 149.74511719 C131.73160432 151.45102758 129.2750525 153.37663229 126.76025391 155.48193359 C110.2079691 168.51369169 91.95832798 166.72373622 71.94061279 166.2434082 C64.70093744 166.08322625 57.45953095 166.04079291 50.21840286 165.99487114 C47.70301781 165.968417 45.18984996 165.91096601 42.67514038 165.84815979 C41.14622835 165.82512502 39.61730808 165.80262878 38.08837891 165.78076172 C37.04598305 165.7425808 37.04598305 165.7425808 35.98252869 165.70362854 C32.78217215 165.67919699 31.24736727 165.71485383 28.8996582 167.99095154 C27.61250799 170.55118063 27.44172353 172.32214635 27.43066406 175.18286133 C27.42679688 176.14450195 27.42292969 177.10614258 27.41894531 178.09692383 C27.43054687 179.0946582 27.44214844 180.09239258 27.45410156 181.12036133 C27.4425 182.1180957 27.43089844 183.11583008 27.41894531 184.14379883 C27.4228125 185.10543945 27.42667969 186.06708008 27.43066406 187.05786133 C27.43573975 188.37077148 27.43573975 188.37077148 27.44091797 189.71020508 C27.95051041 192.87416521 28.42822336 193.94264297 30.82910156 196.12036133 C34.02028213 196.75483092 37.19660283 196.68374117 40.44116211 196.66625977 C41.42671082 196.67659744 42.41225952 196.68693512 43.42767334 196.69758606 C46.69055365 196.72712221 49.95281656 196.72851554 53.21582031 196.72973633 C55.4759897 196.74471063 57.7361481 196.76143619 59.99629211 196.77984619 C65.94915252 196.82361582 71.90186531 196.84354018 77.8548584 196.85858154 C83.92774215 196.87811794 90.00046566 196.92009181 96.07324219 196.96020508 C107.99181267 197.03561139 119.91034747 197.08583978 131.82910156 197.12036133 C133.87352484 193.57669431 134.09610594 191.51833504 134.82910156 187.12036133 C160.89910156 187.12036133 186.96910156 187.12036133 213.82910156 187.12036133 C214.01472656 199.76348633 214.20035156 212.40661133 214.39160156 225.43286133 C214.4735376 229.40486572 214.55547363 233.37687012 214.63989258 237.46923828 C214.68054199 242.37072754 214.68054199 242.37072754 214.68809509 244.67521667 C214.70179405 246.26329842 214.7331963 247.85129445 214.77928162 249.43876648 C214.84610119 251.86460225 214.85422907 254.28479549 214.85083008 256.71142578 C214.89940454 257.7481554 214.89940454 257.7481554 214.9489603 258.80582905 C214.83773134 264.81774166 212.04989132 269.45133177 208.1298399 273.87533283 C200.83431444 278.83745369 191.58317234 277.61065932 183.08056641 277.49609375 C180.85414633 277.50609496 178.62774322 277.52082038 176.40138245 277.53990173 C170.36987825 277.57716757 164.34054287 277.54550332 158.30917311 277.49914718 C151.99301884 277.46007338 145.67698263 277.47716482 139.36074829 277.48616028 C128.75669569 277.4924431 118.1535876 277.45470776 107.54980469 277.38964844 C96.64878181 277.32277621 85.74885463 277.30156538 74.84765625 277.328125 C61.69426982 277.36010679 48.54150993 277.35175433 35.38811111 277.30770302 C30.36982789 277.29154791 25.35189261 277.29082132 20.33359909 277.30241966 C14.42491924 277.31385214 8.5177254 277.2854944 2.60934258 277.22644997 C0.44182706 277.21108534 -1.72583349 277.20927848 -3.89336586 277.2220459 C-6.85451182 277.23720007 -9.81115539 277.20305795 -12.7718811 277.15641785 C-13.6285974 277.17221726 -14.48531369 277.18801668 -15.36799109 277.20429486 C-19.12296748 277.09757305 -21.32227785 276.84412196 -24.23776031 274.35760272 C-26.0148657 272.347785 -27.61630176 270.30507461 -29.17089844 268.12036133 C-29.81534912 267.30269287 -30.4597998 266.48502441 -31.1237793 265.64257812 C-31.87220093 264.61644409 -31.87220093 264.61644409 -32.63574219 263.56958008 C-33.20873047 262.78776367 -33.78171875 262.00594727 -34.37207031 261.20043945 C-34.94505859 260.41088867 -35.51804687 259.62133789 -36.10839844 258.80786133 C-36.67751953 258.02991211 -37.24664063 257.25196289 -37.83300781 256.45043945 C-38.97520767 254.88776647 -40.1051307 253.31603032 -41.22132111 251.73467445 C-43.10265919 249.11409396 -43.10265919 249.11409396 -45.23137665 246.901968 C-52.78050447 238.24854527 -52.36028847 229.92446427 -52.33300781 219.02905273 C-52.35698235 217.1107468 -52.38421223 215.19247924 -52.41442871 213.27426147 C-52.48479176 208.08750917 -52.50383856 202.90181411 -52.508955 197.7146306 C-52.51466275 194.46377146 -52.5317819 191.21317648 -52.55293274 187.96238327 C-52.62686142 176.59120549 -52.65962698 165.22077535 -52.65332031 153.84936523 C-52.64852484 143.29916163 -52.7327362 132.75224481 -52.85926962 122.20287192 C-52.96441939 113.10755082 -53.00676878 104.01329424 -53.00167704 94.91737115 C-52.99965149 89.50149255 -53.02162597 84.08853295 -53.10710144 78.67326736 C-53.69875815 38.34463706 -53.69875815 38.34463706 -41.91133881 25.78716469 C-40.5110708 24.41552764 -39.08086046 23.07401191 -37.62733841 21.7589407 C-35.51312773 19.48796613 -34.10068176 17.50129279 -32.50678635 14.87644291 C-23.71634506 0.81726801 -15.97909193 -0.34003557 0 0 Z " fill="#FEFEFE" transform="translate(1031.1708984375,151.879638671875)"/>
<path d="M0 0 C32.270517 -2.82228322 32.270517 -2.82228322 40.93212891 1.44433594 C44.63951886 4.60644825 46.79908077 8.29728403 48.94091797 12.62451172 C50.88336321 16.28679861 52.89416476 19.1737776 55.78051758 22.14550781 C67.95592386 34.95761757 68.82365517 46.9464737 68.52734375 63.734375 C68.46545684 66.04400268 68.39367526 68.35311706 68.31866455 70.66235352 C68.15850299 76.11496489 68.12169922 81.57015568 68.06903076 87.0246582 C68.04076661 89.91542761 67.9801638 92.80259157 67.89239502 95.69213867 C67.8637738 96.98869385 67.83515259 98.28524902 67.80566406 99.62109375 C67.77152405 100.7598999 67.73738403 101.89870605 67.70220947 103.07202148 C68.03637836 106.35768455 68.88540219 107.54648708 71 110 C71 110.66 71 111.32 71 112 C73.31 112 75.62 112 78 112 C78 128.83 78 145.66 78 163 C75.69 163.33 73.38 163.66 71 164 C68.41136144 166.23682264 68.04813308 167.53613338 67.69548035 170.93470764 C67.72660416 172.07653 67.75772797 173.21835236 67.78979492 174.39477539 C67.81518845 175.69455826 67.84058197 176.99434113 67.866745 178.33351135 C67.88614325 179.0271686 67.9055415 179.72082584 67.92552757 180.43550301 C68.00050803 183.38628142 68.02111438 186.33669279 68.04526997 189.28825283 C68.09085559 194.77152863 68.15703228 200.25243908 68.31860352 205.73364258 C69.22053996 237.79384653 69.22053996 237.79384653 56.56396484 251.35791016 C55.66287239 252.26465233 55.66287239 252.26465233 54.74357605 253.18971252 C52.02124143 256.01620711 49.75304786 259.15234596 47.4375 262.3125 C45.97003574 264.21740595 44.49138249 266.11376133 43 268 C42.30132812 269.02182373 41.60265625 270.04364746 40.8828125 271.09643555 C38.57733856 273.83524883 37.92179159 274.01972268 34.16625977 274.96679688 C32.6769667 275.08504796 31.18449389 275.16711229 29.69140625 275.21875 C28.89222275 275.26033737 28.09303925 275.30192474 27.26963806 275.34477234 C24.69878051 275.44842499 22.1353502 275.4864148 19.5625 275.5 C18.69318848 275.50770416 17.82387695 275.51540833 16.92822266 275.52334595 C0.5595921 275.48285024 0.5595921 275.48285024 -5.12890625 270.63671875 C-8.2572254 267.003415 -10.46241082 262.94628341 -12.57958984 258.66210938 C-15.12791561 253.8860791 -18.52896614 249.72456389 -21.8125 245.4375 C-22.98953233 243.83485553 -24.16305579 242.22962437 -25.33203125 240.62109375 C-27.04788034 238.2092034 -27.04788034 238.2092034 -29 236 C-29.1287626 233.50136601 -29.19235465 231.02914842 -29.21446228 228.52871704 C-29.2305608 227.34085431 -29.2305608 227.34085431 -29.24698454 226.12899435 C-29.28163096 223.45403387 -29.30877319 220.77905258 -29.33569336 218.10400391 C-29.35831473 216.19381935 -29.38118325 214.28363771 -29.40428162 212.37345886 C-29.60714307 194.8647806 -29.71864386 177.35505529 -29.80750179 159.84546852 C-29.86852175 148.0781836 -29.955792 136.3123516 -30.11108398 124.54589844 C-30.24657831 114.27939259 -30.33198322 104.01389243 -30.35790926 93.74650323 C-30.3732142 88.3171412 -30.41217803 82.89044399 -30.51078606 77.46190262 C-31.21556507 36.99192967 -31.21556507 36.99192967 -20.29511929 24.96736336 C-19.10511038 23.79116156 -17.88998605 22.63955576 -16.64564896 21.52098656 C-14.27466201 19.32960834 -12.49890699 16.88693529 -10.60546875 14.27734375 C-9.46886922 12.82858843 -8.32973629 11.38181531 -7.1875 9.9375 C-6.01278095 8.44782925 -4.8395225 6.95700514 -3.66796875 5.46484375 C-2.92969849 4.53079712 -2.92969849 4.53079712 -2.17651367 3.57788086 C-0.92393238 1.99463694 -0.92393238 1.99463694 0 0 Z " fill="#FEFEFE" transform="translate(315,154)"/>
<path d="M0 0 C8.25 0 16.5 0 25 0 C26.92079954 11.73123833 28.27661768 23.50408884 29.625 35.3125 C30.40875 42.139375 31.1925 48.96625 32 56 C34.64 37.52 37.28 19.04 40 0 C48.25 0 56.5 0 65 0 C66.69032764 1.69032764 66.52148296 3.93814098 66.84790039 6.25415039 C67.00799088 7.37523697 67.16808136 8.49632355 67.33302307 9.65138245 C67.50285202 10.8711528 67.67268097 12.09092316 67.84765625 13.34765625 C68.02380966 14.58921982 68.19996307 15.83078339 68.38145447 17.10997009 C68.84969383 20.41561764 69.31429042 23.72173639 69.77716064 27.02813721 C70.25010395 30.40004592 70.72778624 33.77128271 71.20507812 37.14257812 C72.14110792 43.76110541 73.07234417 50.38029412 74 57 C74.10942177 55.99521858 74.10942177 55.99521858 74.22105408 54.97013855 C74.97958502 48.0108227 75.74271617 41.05202234 76.50854492 34.09350586 C76.79391085 31.49500304 77.07809563 28.89637024 77.36108398 26.29760742 C77.76757798 22.56654778 78.17828963 18.83597319 78.58984375 15.10546875 C78.77896584 13.35691841 78.77896584 13.35691841 78.97190857 11.57304382 C79.09195755 10.49214981 79.21200653 9.4112558 79.33569336 8.29760742 C79.49224648 6.86864388 79.49224648 6.86864388 79.65196228 5.41081238 C80 3 80 3 81 0 C89.25 0 97.5 0 106 0 C104.67687523 11.79313659 103.07677508 23.49619123 101.21484375 35.21484375 C100.95086096 36.88966366 100.6870761 38.56451477 100.42347717 40.23939514 C99.87684537 43.70771255 99.32785681 47.17564592 98.77709961 50.64331055 C98.07086443 55.09116177 97.37074836 59.539952 96.67232418 63.98903561 C96.13171056 67.42853264 95.58793678 70.86752416 95.04318428 74.30636787 C94.78344287 75.94850762 94.52469191 77.59080434 94.26695061 79.2332592 C93.90897125 81.51141833 93.54674605 83.78886171 93.18334961 86.06616211 C92.97842392 87.36057724 92.77349823 88.65499237 92.56236267 89.9886322 C92 93 92 93 91 95 C80.77 95 70.54 95 60 95 C59.14100014 89.00489678 58.28500078 83.00951938 57.43652344 77.01293945 C57.14725143 74.97493079 56.85625673 72.93716584 56.56347656 70.8996582 C56.14190086 67.96368453 55.7266162 65.02687771 55.3125 62.08984375 C55.18125732 61.18540024 55.05001465 60.28095673 54.91479492 59.34910583 C54.23925803 54.51073141 53.86034061 49.88516905 54 45 C53.34 45 52.68 45 52 45 C51.93522461 46.19725708 51.93522461 46.19725708 51.86914062 47.41870117 C51.29571285 56.67574573 50.18211007 65.78170583 48.84326172 74.95483398 C48.49400046 77.35370737 48.15478225 79.75386626 47.81640625 82.15429688 C47.59693798 83.68237563 47.376908 85.21037384 47.15625 86.73828125 C47.05517944 87.45478348 46.95410889 88.17128571 46.84997559 88.90950012 C46.11521179 93.88478821 46.11521179 93.88478821 45 95 C42.78144736 95.08783542 40.56011504 95.10694609 38.33984375 95.09765625 C37.34314415 95.09553383 37.34314415 95.09553383 36.3263092 95.09336853 C34.19666101 95.08775518 32.06711661 95.07520054 29.9375 95.0625 C28.49674631 95.05748671 27.05599097 95.05292351 25.61523438 95.04882812 C22.07678898 95.03778145 18.53840461 95.02050792 15 95 C13.56461695 89.53238228 12.44141962 84.12043916 11.57958984 78.53613281 C11.38895714 77.32969872 11.38895714 77.32969872 11.19447327 76.09889221 C10.77967981 73.46752315 10.3701433 70.83536832 9.9609375 68.203125 C9.67256294 66.36322481 9.3839545 64.52336127 9.09512329 62.68353271 C8.49272155 58.84097759 7.89288292 54.99803376 7.29492188 51.15478516 C6.52835603 46.22898994 5.75577651 41.30416055 4.98134422 36.37959671 C4.38544305 32.58645581 3.79250566 28.79285631 3.20048904 24.99910736 C2.91667872 23.18248703 2.63199334 21.36600319 2.34641647 19.54965973 C1.94850132 17.01565708 1.55452968 14.48107215 1.16162109 11.94628906 C1.04320358 11.19712723 0.92478607 10.44796539 0.80278015 9.67610168 C0.29693432 6.38761348 0 3.33907906 0 0 Z " fill="#FEFEFE" transform="translate(741,38)"/>
<path d="M0 0 C10.23 0 20.46 0 31 0 C33.52741891 5.88965195 36.05446647 11.77946035 38.58056641 17.66967773 C39.43972268 19.67270125 40.29909575 21.6756318 41.15869141 23.6784668 C42.39542978 26.5601387 43.63138374 29.44214594 44.8671875 32.32421875 C45.25059296 33.21711105 45.63399841 34.11000336 46.02902222 35.029953 C46.38924469 35.87044693 46.74946716 36.71094086 47.12060547 37.5769043 C47.43593231 38.31192673 47.75125916 39.04694916 48.07614136 39.804245 C49.08021549 42.19064991 50.03845718 44.59614296 51 47 C51.33 31.49 51.66 15.98 52 0 C60.25 0 68.5 0 77 0 C77 31.35 77 62.7 77 95 C67.1 95 57.2 95 47 95 C40.07 78.83 33.14 62.66 26 46 C25.67 62.17 25.34 78.34 25 95 C16.75 95 8.5 95 0 95 C0 63.65 0 32.3 0 0 Z " fill="#FEFEFE" transform="translate(509,38)"/>
<path d="M0 0 C8.229375 -0.061875 16.45875 -0.12375 24.9375 -0.1875 C27.51812256 -0.21481201 30.09874512 -0.24212402 32.75756836 -0.27026367 C34.82665541 -0.279034 36.89574768 -0.28667664 38.96484375 -0.29296875 C40.01998169 -0.30831665 41.07511963 -0.32366455 42.16223145 -0.33947754 C49.91130776 -0.34219365 57.05078386 0.49256288 63.375 5.3125 C70.06412324 12.16088808 70.29999186 19.39531633 70.21484375 28.515625 C69.76104756 35.87537418 66.93310799 40.66691028 62 46 C63.36125 46.7734375 63.36125 46.7734375 64.75 47.5625 C69.31704893 50.58560568 71.28647801 54.85943404 73 60 C73.68201104 69.85002833 74.18261402 79.84646589 67.45703125 87.83203125 C59.82224599 95.01257299 51.40166178 95.42932839 41.40625 95.29296875 C40.35276367 95.28994751 39.29927734 95.28692627 38.21386719 95.28381348 C34.30914397 95.2682137 30.4045613 95.22633027 26.5 95.1875 C17.755 95.125625 9.01 95.06375 0 95 C0 63.65 0 32.3 0 0 Z M25 20 C25 26.27 25 32.54 25 39 C27.3925 39.0825 29.785 39.165 32.25 39.25 C33.37003418 39.30462402 33.37003418 39.30462402 34.51269531 39.36035156 C37.80806776 39.41530398 39.70887255 39.19872815 42.44921875 37.328125 C44.32247427 34.51588246 44.5671184 32.86219445 44.5625 29.5 C44.58441406 28.5615625 44.60632813 27.623125 44.62890625 26.65625 C44.18312476 23.83327896 44.18312476 23.83327896 41.921875 21.671875 C38.256945 19.57482949 35.88079941 19.59324114 31.6875 19.75 C29.480625 19.8325 27.27375 19.915 25 20 Z M25 54 C25 60.93 25 67.86 25 75 C29.08375 75.12375 29.08375 75.12375 33.25 75.25 C34.10110352 75.28641602 34.95220703 75.32283203 35.82910156 75.36035156 C39.43494876 75.41330337 41.43499118 75.36993579 44.51171875 73.35546875 C46.37237977 70.41064304 46.56687784 68.53412777 46.5625 65.0625 C46.58441406 64.04285156 46.60632813 63.02320313 46.62890625 61.97265625 C45.75930663 57.86231269 44.4008606 56.43936075 41 54 C38.18603065 53.42713697 35.54349288 53.52289366 32.6875 53.6875 C28.8821875 53.8421875 28.8821875 53.8421875 25 54 Z " fill="#FEFEFE" transform="translate(591,38)"/>
<path d="M0 0 C2.13964586 0.0160839 4.27740358 0.00008678 6.41699219 -0.01904297 C15.49689006 -0.03414942 24.29866346 0.21580123 31.45605469 6.45361328 C32.37837891 7.21351562 32.37837891 7.21351562 33.31933594 7.98876953 C39.21188775 15.74876816 39.73021506 24.12203843 39.63964844 33.55517578 C39.64110367 34.78722748 39.6425589 36.01927917 39.64405823 37.28866577 C39.64240651 39.87882872 39.63092748 42.46900223 39.61010742 45.05908203 C39.5810898 49.0113306 39.58952835 52.96224079 39.60253906 56.91455078 C39.59630257 59.44059893 39.58791234 61.96664287 39.57714844 64.49267578 C39.58008408 65.66682037 39.58301971 66.84096497 39.58604431 68.0506897 C39.49212185 76.25732828 38.61194377 83.2100669 33.01855469 89.64111328 C32.50035156 90.26501953 31.98214844 90.88892578 31.44824219 91.53173828 C23.32383225 98.08634697 14.58974338 98.01777021 4.578125 97.91259766 C2.1483988 97.89115603 -0.27837165 97.91246483 -2.70800781 97.93798828 C-12.05921453 97.95550417 -19.38027142 97.28940656 -27.16113281 91.75048828 C-27.67933594 91.21939453 -28.19753906 90.68830078 -28.73144531 90.14111328 C-29.53195312 89.35994141 -29.53195312 89.35994141 -30.34863281 88.56298828 C-35.40300443 81.28259807 -35.31104486 73.83196725 -35.29003906 65.27392578 C-35.29528091 64.02159149 -35.30052277 62.7692572 -35.30592346 61.47897339 C-35.31232846 58.83787264 -35.31247954 56.19764183 -35.30249023 53.55664062 C-35.29329764 50.86622025 -35.30022485 48.17666713 -35.32299805 45.48632812 C-35.35381847 41.58192951 -35.35706923 37.67842717 -35.35253906 33.77392578 C-35.36377304 32.58195587 -35.37500702 31.38998596 -35.38658142 30.16189575 C-35.31821634 21.89313317 -34.13395721 14.70732274 -29.03222656 7.98876953 C-28.41734375 7.48216797 -27.80246094 6.97556641 -27.16894531 6.45361328 C-26.26595703 5.66664062 -26.26595703 5.66664062 -25.34472656 4.86376953 C-17.29282556 0.09835873 -9.16762901 -0.08196642 0 0 Z M-8.85644531 24.39111328 C-9.77163341 27.13667757 -10.00130926 28.85469922 -10.04931641 31.69140625 C-10.06537933 32.55595428 -10.08144226 33.42050232 -10.09799194 34.31124878 C-10.14255518 38.25469045 -10.18348807 42.19796702 -10.20654297 46.14160156 C-10.2231169 48.22114237 -10.25042571 50.30062589 -10.28857422 52.37988281 C-10.34333632 55.38132206 -10.3652138 58.3814293 -10.37988281 61.38330078 C-10.41388687 62.77414383 -10.41388687 62.77414383 -10.44857788 64.19308472 C-10.43371848 68.73349754 -10.337355 70.75081147 -7.53686523 74.47949219 C-4.09259628 76.93587491 -1.99188869 76.99886798 2.20605469 76.89111328 C3.41390625 76.88080078 4.62175781 76.87048828 5.86621094 76.85986328 C9.29941587 76.36882086 10.7366082 75.83846415 13.14355469 73.39111328 C14.05538387 70.65562572 14.27874704 69.0021309 14.3046875 66.18261719 C14.31429504 65.3380899 14.32390259 64.49356262 14.33380127 63.6234436 C14.33805115 62.71404022 14.34230103 61.80463684 14.34667969 60.86767578 C14.3552298 59.4601857 14.3552298 59.4601857 14.36395264 58.02426147 C14.37339863 56.03880947 14.37993503 54.05334182 14.38378906 52.06787109 C14.39349516 49.03471464 14.42452255 46.00223572 14.45605469 42.96923828 C14.46258492 41.0395548 14.46783531 39.10986648 14.47167969 37.18017578 C14.48402649 36.27482086 14.49637329 35.36946594 14.50909424 34.43667603 C14.4920853 29.61452839 14.34120407 26.27869979 11.14355469 22.39111328 C8.20432536 20.92149862 5.53946497 21.18191466 2.26855469 21.14111328 C1.03363281 21.11533203 -0.20128906 21.08955078 -1.47363281 21.06298828 C-5.0419764 21.40910937 -6.39426669 21.84567258 -8.85644531 24.39111328 Z " fill="#FEFEFE" transform="translate(701.8564453125,36.60888671875)"/>
<path d="M0 0 C8.229375 -0.061875 16.45875 -0.12375 24.9375 -0.1875 C27.51812256 -0.21481201 30.09874512 -0.24212402 32.75756836 -0.27026367 C34.82665541 -0.279034 36.89574768 -0.28667664 38.96484375 -0.29296875 C40.01998169 -0.30831665 41.07511963 -0.32366455 42.16223145 -0.33947754 C49.82331401 -0.34216281 56.23947747 0.66011932 62.8125 4.75 C69.30418128 11.42715789 70.19493478 18.30134932 70.25 27.1875 C70.270625 28.00025391 70.29125 28.81300781 70.3125 29.65039062 C70.35502307 36.33182794 69.50919563 42.80077557 65.28125 48.19140625 C64.6934375 48.64386719 64.105625 49.09632812 63.5 49.5625 C62.9121875 50.03816406 62.324375 50.51382813 61.71875 51.00390625 C60 52 60 52 57 52 C57.45439453 53.08941895 57.90878906 54.17883789 58.37695312 55.30126953 C60.06488203 59.35597817 61.73883512 63.41633461 63.40869141 67.47851562 C64.13244625 69.2336616 64.85994899 70.98726706 65.59130859 72.73925781 C66.64376337 75.26228546 67.68247925 77.79060194 68.71875 80.3203125 C69.21091003 81.48785568 69.21091003 81.48785568 69.7130127 82.6789856 C70.01332397 83.41930023 70.31363525 84.15961487 70.62304688 84.92236328 C70.88952026 85.56634064 71.15599365 86.21031799 71.43054199 86.87380981 C72 89 72 89 72 95 C63.75 95 55.5 95 47 95 C41.43417367 82.75518207 41.43417367 82.75518207 39.0625 76.6171875 C38.55573369 75.33552335 38.04789264 74.0542837 37.5390625 72.7734375 C36.75915357 70.80632286 35.98572026 68.83768083 35.22949219 66.86132812 C34.48349399 64.9181308 33.71308517 62.98623174 32.9375 61.0546875 C32.49277344 59.91499512 32.04804688 58.77530273 31.58984375 57.60107422 C31.06519531 56.74271973 30.54054688 55.88436523 30 55 C28.35 54.67 26.7 54.34 25 54 C25 67.53 25 81.06 25 95 C16.75 95 8.5 95 0 95 C0 63.65 0 32.3 0 0 Z M25 20 C25 26.27 25 32.54 25 39 C27.3925 39.061875 29.785 39.12375 32.25 39.1875 C32.99668945 39.21481201 33.74337891 39.24212402 34.51269531 39.27026367 C37.58938452 39.30874297 39.70399594 39.16184738 42.421875 37.67578125 C44.84164722 35.10627065 44.99765748 33.0429462 45.1875 29.5625 C44.97463536 25.43758282 44.97463536 25.43758282 43 22 C39.37252652 19.54971142 36.02892108 19.79576072 31.75 19.875 C29.5225 19.91625 27.295 19.9575 25 20 Z " fill="#FEFEFE" transform="translate(316,38)"/>
<path d="M0 0 C6.61839546 5.15845529 9.25182415 11.74593415 10.28515625 19.91015625 C10.48431641 21.73353516 10.48431641 21.73353516 10.6875 23.59375 C-10.28775088 25.24474456 -10.28775088 25.24474456 -15 21.40234375 C-16.4375 18.65625 -16.4375 18.65625 -17.3203125 15.87890625 C-17.81144531 14.74775391 -17.81144531 14.74775391 -18.3125 13.59375 C-20.85435178 12.69383288 -20.85435178 12.69383288 -23.3125 12.59375 C-28.45343026 19.61968802 -29.66391305 25.98413019 -29.3125 34.59375 C-28.1059375 33.665625 -28.1059375 33.665625 -26.875 32.71875 C-20.48255684 28.52184223 -13.4089165 28.09509199 -5.9609375 28.9921875 C-0.32574436 30.27215762 3.37924622 33.04450211 7.0625 37.40625 C13.12165909 49.29152359 12.67933981 67.65526932 8.78125 80.1796875 C5.50573106 87.40922574 0.81752466 91.03314435 -6.4699707 93.79541016 C-11.42645513 95.18746582 -16.26018031 95.13141387 -21.375 95.03125 C-22.39916016 95.03833984 -23.42332031 95.04542969 -24.47851562 95.05273438 C-32.08741951 94.98952942 -38.5511113 93.85058322 -45.125 89.90625 C-50.73393955 83.97679961 -52.41634892 77.04420626 -52.47363281 69.04418945 C-52.48324036 67.95568192 -52.4928479 66.86717438 -52.50274658 65.74568176 C-52.50699646 64.57792709 -52.51124634 63.41017242 -52.515625 62.20703125 C-52.52132507 60.99484421 -52.52702515 59.78265717 -52.53289795 58.53373718 C-52.54233721 55.96919627 -52.54887766 53.40464328 -52.55273438 50.84008789 C-52.56242094 46.93809545 -52.59344784 43.03663411 -52.625 39.13476562 C-52.63153248 36.63802395 -52.63678199 34.14127852 -52.640625 31.64453125 C-52.6529718 30.48689774 -52.6653186 29.32926422 -52.67803955 28.1365509 C-52.65084969 18.1319128 -51.35857872 9.68419614 -44.2734375 2.28515625 C-33.11065795 -7.34329703 -12.31680751 -7.48995051 0 0 Z M-21.375 48.84375 C-22.62990234 49.47023437 -22.62990234 49.47023437 -23.91015625 50.109375 C-26.59510376 51.76836696 -28.41330298 53.05427699 -30.3125 55.59375 C-30.87213459 59.15367846 -30.87213459 59.15367846 -30.6875 63.03125 C-30.67460938 64.32933594 -30.66171875 65.62742187 -30.6484375 66.96484375 C-30.34052473 70.29101773 -29.75026996 72.60893956 -28.3125 75.59375 C-28.9725 75.92375 -29.6325 76.25375 -30.3125 76.59375 C-24.0425 76.59375 -17.7725 76.59375 -11.3125 76.59375 C-11.9725 76.26375 -12.6325 75.93375 -13.3125 75.59375 C-12.98652832 74.88710205 -12.66055664 74.1804541 -12.32470703 73.45239258 C-11.23447178 70.37338521 -11.08238668 68.10934561 -11.1171875 64.85546875 C-11.12363281 63.78876953 -11.13007812 62.72207031 -11.13671875 61.62304688 C-11.15347656 60.52025391 -11.17023437 59.41746094 -11.1875 58.28125 C-11.19652344 57.15912109 -11.20554687 56.03699219 -11.21484375 54.88085938 C-11.23835514 52.11827091 -11.27121845 49.35612068 -11.3125 46.59375 C-15.35177251 46.49098882 -17.75615725 46.98678587 -21.375 48.84375 Z " fill="#FEFEFE" transform="translate(918.3125,40.40625)"/>
<path d="M0 0 C10.56 0 21.12 0 32 0 C36.32254002 14.8080144 40.63799848 29.61800948 44.93405151 44.43373108 C46.7417991 50.66798654 48.55423547 56.9007963 50.3764801 63.13082886 C51.23540445 66.0754681 52.08570749 69.0225268 52.93240356 71.97070312 C53.48481714 73.88488939 54.04780431 75.79601429 54.61108398 77.70703125 C54.93536377 78.84398438 55.25964355 79.9809375 55.59375 81.15234375 C55.86896484 82.10101318 56.14417969 83.04968262 56.42773438 84.02709961 C57 87 57 87 57 95 C48.75 95 40.5 95 32 95 C31.175 91.761875 30.35 88.52375 29.5 85.1875 C29.23896484 84.17067139 28.97792969 83.15384277 28.70898438 82.10620117 C28.40444336 80.89927612 28.40444336 80.89927612 28.09375 79.66796875 C27.88427734 78.84578857 27.67480469 78.0236084 27.45898438 77.17651367 C27 75 27 75 27 72 C19.74 72 12.48 72 5 72 C3.72778914 78.07257635 3.72778914 78.07257635 2.45727539 84.14550781 C2.29735107 84.90702148 2.13742676 85.66853516 1.97265625 86.453125 C1.81031494 87.22817383 1.64797363 88.00322266 1.48071289 88.80175781 C1.02691161 90.87693643 0.51519853 92.93920589 0 95 C-8.25 95 -16.5 95 -25 95 C-25 86 -25 86 -23.65820312 81.30371094 C-23.36369263 80.25350769 -23.06918213 79.20330444 -22.76574707 78.12127686 C-22.44086304 77.00359924 -22.115979 75.88592163 -21.78125 74.734375 C-21.44508667 73.54692688 -21.10892334 72.35947876 -20.76257324 71.13604736 C-19.68482094 67.33783666 -18.59268521 63.54393843 -17.5 59.75 C-16.79591989 57.27761555 -16.09278674 54.80496121 -15.390625 52.33203125 C-13.98599317 47.39189946 -12.57428125 42.45388007 -11.15625 37.51757812 C-9.66807283 32.33650428 -8.18963473 27.15279583 -6.71875 21.96679688 C-6.34799542 20.66154462 -5.97718735 19.35630756 -5.60632324 18.05108643 C-4.90280599 15.57391807 -4.20068323 13.09635315 -3.50012207 10.61834717 C-3.02923157 8.96310028 -3.02923157 8.96310028 -2.54882812 7.27441406 C-2.27300903 6.30119202 -1.99718994 5.32796997 -1.7130127 4.32525635 C-1 2 -1 2 0 0 Z M15 25 C14.00035249 29.37763573 13.00350846 33.75589739 12.00927734 38.13476562 C11.67053308 39.62485064 11.33101831 41.1147607 10.99072266 42.60449219 C10.50221149 44.74368684 10.01645909 46.88349179 9.53125 49.0234375 C9.37813354 49.69120209 9.22501709 50.35896667 9.06726074 51.04696655 C8.26886466 54.48937224 8.26886466 54.48937224 8 58 C13.28 58 18.56 58 24 58 C23.04751097 53.45912316 22.09005185 48.91993912 21.11914062 44.38305664 C20.79023292 42.83845796 20.46437561 41.29320652 20.14160156 39.74731445 C19.6778789 37.52898475 19.20333786 35.31321219 18.7265625 33.09765625 C18.58376862 32.4028566 18.44097473 31.70805695 18.29385376 30.99220276 C17.92683511 29.31279077 17.47121049 27.65320537 17 26 C16.34 25.67 15.68 25.34 15 25 Z " fill="#FEFEFE" transform="translate(417,38)"/>
<path d="M0 0 C8.58 0 17.16 0 26 0 C26 31.35 26 62.7 26 95 C17.42 95 8.84 95 0 95 C0 63.65 0 32.3 0 0 Z " fill="#FCFCFC" transform="translate(478,38)"/>
<path d="M0 0 C2.64 0 5.28 0 8 0 C8.42152344 0.99902344 8.84304688 1.99804688 9.27734375 3.02734375 C9.83060217 4.33078308 10.38399451 5.63416557 10.9375 6.9375 C11.21529297 7.59685547 11.49308594 8.25621094 11.77929688 8.93554688 C13.00792883 12.20468496 13.00792883 12.20468496 15 15 C16.98 10.05 18.96 5.1 21 0 C23.64 0 26.28 0 29 0 C29 8.25 29 16.5 29 25 C27.02 25 25.04 25 23 25 C22.67 22.03 22.34 19.06 22 16 C20.02 20.455 20.02 20.455 18 25 C15.69 25 13.38 25 11 25 C9.68 21.7 8.36 18.4 7 15 C6.67 18.3 6.34 21.6 6 25 C4.02 25 2.04 25 0 25 C0 16.75 0 8.5 0 0 Z " fill="#FDFDFD" transform="translate(532,0)"/>
<path d="M0 0 C2.64 0 5.28 0 8 0 C10.3125 2.625 10.3125 2.625 12 6 C12.5775 7.11375 13.155 8.2275 13.75 9.375 C14.1625 10.24125 14.575 11.1075 15 12 C15.33 8.04 15.66 4.08 16 0 C18.31 0 20.62 0 23 0 C23 8.25 23 16.5 23 25 C20.36 25 17.72 25 15 25 C12.6875 22.59375 12.6875 22.59375 11 19.5 C10.4225 18.4790625 9.845 17.458125 9.25 16.40625 C8.8375 15.6121875 8.425 14.818125 8 14 C7.67 17.63 7.34 21.26 7 25 C4.69 25 2.38 25 0 25 C0 16.75 0 8.5 0 0 Z " fill="#FDFDFD" transform="translate(748,449)"/>
<path d="M0 0 C2.64 0 5.28 0 8 0 C9.98 3.63 11.96 7.26 14 11 C14.33 7.37 14.66 3.74 15 0 C17.31 0 19.62 0 22 0 C22 8.25 22 16.5 22 25 C19.69 25 17.38 25 15 25 C12.78515625 22.59375 12.78515625 22.59375 11.0625 19.5 C10.47597656 18.4790625 9.88945313 17.458125 9.28515625 16.40625 C8.86105469 15.6121875 8.43695312 14.818125 8 14 C7.67 17.63 7.34 21.26 7 25 C4.69 25 2.38 25 0 25 C0 16.75 0 8.5 0 0 Z " fill="#F9F9F9" transform="translate(654,0)"/>
<path d="M0 0 C2.1650775 1.783005 3.69293726 3.33810485 5.125 5.75 C5.125 6.74 5.125 7.73 5.125 8.75 C1.875 9 1.875 9 -1.875 8.75 C-3.22808313 7.43671343 -4.56370078 6.10500919 -5.875 4.75 C-8.52627469 4.58022506 -8.52627469 4.58022506 -10.875 5.75 C-12.93695395 8.28057985 -12.88657376 9.60532798 -12.625 12.875 C-12.10616835 15.85597798 -12.10616835 15.85597798 -9.875 17.75 C-6.29156024 17.91677282 -6.29156024 17.91677282 -2.875 17.75 C-2.875 17.09 -2.875 16.43 -2.875 15.75 C-4.855 15.75 -6.835 15.75 -8.875 15.75 C-8.875 13.77 -8.875 11.79 -8.875 9.75 C-4.585 9.75 -0.295 9.75 4.125 9.75 C4.125 14.37 4.125 18.99 4.125 23.75 C1.79166667 23.75 -0.54166667 23.75 -2.875 23.75 C-3.59171875 23.79640625 -4.3084375 23.8428125 -5.046875 23.890625 C-9.49765285 24.07944588 -12.29465779 24.02980785 -16.375 22.0625 C-20.10652888 18.61083578 -20.74077041 16.25337135 -21.1875 11.25 C-20.78338578 6.72392069 -19.2760735 4.38458575 -16.375 1 C-12.01118089 -2.63651593 -4.91875403 -2.13858871 0 0 Z " fill="#FBFBFB" transform="translate(726.875,450.25)"/>
<path d="M0 0 C2.536875 -0.103125 5.07375 -0.20625 7.6875 -0.3125 C8.47729248 -0.35802002 9.26708496 -0.40354004 10.08081055 -0.45043945 C14.18649349 -0.53090233 15.63775657 -0.27775108 19.03125 2.32421875 C21 5 21 5 20.8125 8.125 C20.544375 9.07375 20.27625 10.0225 20 11 C20 11.99 20 12.98 20 14 C20.33 14.33 20.66 14.66 21 15 C21.37739185 18.39652661 21.46621949 20.30870903 19.52734375 23.18359375 C15.83272029 25.83892591 12.66960814 25.43910099 8.25 25.25 C5.5275 25.1675 2.805 25.085 0 25 C0 16.75 0 8.5 0 0 Z M7 6 C7 7.32 7 8.64 7 10 C9.41619823 10.25030977 9.41619823 10.25030977 12 10 C12.66 9.01 13.32 8.02 14 7 C12.87465895 5.64381501 12.87465895 5.64381501 9.9375 5.9375 C8.968125 5.958125 7.99875 5.97875 7 6 Z M7 15 C7 16.65 7 18.3 7 20 C10.465 19.505 10.465 19.505 14 19 C14 18.01 14 17.02 14 16 C11.69 15.67 9.38 15.34 7 15 Z " fill="#FCFCFC" transform="translate(491,449)"/>
<path d="M0 0 C3.5578125 -0.0928125 3.5578125 -0.0928125 7.1875 -0.1875 C8.29387817 -0.22846802 8.29387817 -0.22846802 9.42260742 -0.27026367 C13.827366 -0.32558339 16.5179177 0.29171377 20 3 C21.52491998 6.04983996 21.23562548 8.6423369 21 12 C19.5 13.9375 19.5 13.9375 18 15 C18.4640625 16.36125 18.4640625 16.36125 18.9375 17.75 C19.7272263 20.16563338 20.42949297 22.52780285 21 25 C18.36 25 15.72 25 13 25 C12.73445312 24.43410156 12.46890625 23.86820312 12.1953125 23.28515625 C11.66550781 22.18494141 11.66550781 22.18494141 11.125 21.0625 C10.77695312 20.33160156 10.42890625 19.60070312 10.0703125 18.84765625 C9.1315023 16.83667541 9.1315023 16.83667541 7 16 C7 18.97 7 21.94 7 25 C4.69 25 2.38 25 0 25 C0 16.75 0 8.5 0 0 Z M7 6 C7 7.65 7 9.3 7 11 C8.98 11 10.96 11 13 11 C13.59070014 9.05396726 13.59070014 9.05396726 14 7 C12.87465895 5.64381501 12.87465895 5.64381501 9.9375 5.9375 C8.968125 5.958125 7.99875 5.97875 7 6 Z " fill="#FDFDFD" transform="translate(670,449)"/>
<path d="M0 0 C4.845 3.8475 4.845 3.8475 6.125 7.6875 C6.51941267 12.91346788 6.03049127 16.27916842 3.125 20.6875 C-2.23353248 24.62457186 -7.45575025 24.48768349 -13.875 23.6875 C-17.19679766 21.89372926 -18.35408215 20.60530764 -20.1875 17.375 C-21.38550461 12.69189106 -21.33456706 9.01513816 -19.75 4.4375 C-15.23844624 -2.17944551 -7.00851146 -3.19953784 0 0 Z M-11.75 5.6875 C-14.22421881 8.56778808 -14.22421881 8.56778808 -13.875 12.3125 C-12.80561326 16.24067359 -12.80561326 16.24067359 -9.875 18.6875 C-7.04495526 19.11200671 -5.55107284 19.12211825 -3.125 17.5625 C-1.34474474 14.89211711 -1.00298412 12.88710304 -0.875 9.6875 C-2.18632052 6.40919869 -3.04666314 5.07987009 -6.25 3.5625 C-9.09849157 3.46514021 -9.09849157 3.46514021 -11.75 5.6875 Z " fill="#FBFBFB" transform="translate(659.875,450.3125)"/>
<path d="M0 0 C3.85544798 1.99657127 5.59805092 3.39707638 8 7 C8.65237324 11.37433428 9.03401151 16.01269906 6.94921875 20.01953125 C4.38273433 23.13110971 2.40530774 24.85273721 -1.609375 25.2734375 C-11.13117707 25.58135647 -11.13117707 25.58135647 -14.6875 22.625 C-18.4676227 18.3340499 -18.33627986 15.28290159 -18.28515625 9.703125 C-17.90033774 6.05525636 -16.76015463 4.37679982 -14 2 C-9.50580133 -0.68695707 -5.10436298 -0.66823679 0 0 Z M-10 7 C-11.54586876 10.09173752 -11.29359521 12.59429552 -11 16 C-9.54002013 18.62716577 -9.54002013 18.62716577 -7 20 C-3.86637282 20.08892339 -3.86637282 20.08892339 -1 19 C1.46324069 15.30513897 1.38991688 13.36706908 1 9 C-0.45858864 6.81211703 -1.53580308 6.19466322 -3.9375 5.1875 C-6.56765449 4.94839505 -7.81192864 5.566436 -10 7 Z " fill="#FCFCFC" transform="translate(570,449)"/>
<path d="M0 0 C3.22740807 1.63489714 5.35993068 3.71986136 7 7 C7.50260166 12.11664964 7.84102072 16.52821374 5.25 21.0625 C0.79915843 24.89516913 -2.75907729 25.43934059 -8.5234375 25.3203125 C-12.17679166 24.84779666 -14.29232407 23.43690834 -17 21 C-19.57223437 16.78365707 -19.55953893 12.81203484 -19 8 C-15.26126397 -0.59909287 -8.57536665 -1.25939964 0 0 Z M-10.25 6.5625 C-12.67547804 9.94084442 -12.65373541 11.932313 -12 16 C-10.02928108 18.72675163 -10.02928108 18.72675163 -7 20 C-3.7401469 19.52490784 -3.7401469 19.52490784 -1 18 C0.59429239 14.81141522 0.51682923 11.46204787 0 8 C-1.61548201 5.87105376 -1.61548201 5.87105376 -4 5 C-7.90897434 4.61973613 -7.90897434 4.61973613 -10.25 6.5625 Z " fill="#FCFCFC" transform="translate(520,0)"/>
<path d="M0 0 C2.86328125 0.45703125 2.86328125 0.45703125 6.11328125 2.70703125 C7.86328125 5.45703125 7.86328125 5.45703125 7.86328125 9.45703125 C5.55328125 9.45703125 3.24328125 9.45703125 0.86328125 9.45703125 C0.53328125 8.46703125 0.20328125 7.47703125 -0.13671875 6.45703125 C-1.78671875 6.45703125 -3.43671875 6.45703125 -5.13671875 6.45703125 C-5.46671875 7.11703125 -5.79671875 7.77703125 -6.13671875 8.45703125 C-5.54503906 8.555 -4.95335937 8.65296875 -4.34375 8.75390625 C0.59930996 9.68929769 4.44611963 10.48871453 7.86328125 14.45703125 C8.42578125 17.45703125 8.42578125 17.45703125 7.86328125 20.45703125 C5.46578214 23.41394682 3.5096514 25.27928155 -0.34375 25.6953125 C-4.6287677 25.81737447 -7.38170944 25.87305679 -11.19921875 23.76953125 C-13.31094795 21.24908027 -13.86632293 19.70178109 -14.13671875 16.45703125 C-10.76171875 16.26953125 -10.76171875 16.26953125 -7.13671875 16.45703125 C-6.47671875 17.44703125 -5.81671875 18.43703125 -5.13671875 19.45703125 C-3.48671875 19.12703125 -1.83671875 18.79703125 -0.13671875 18.45703125 C-2.61376376 15.97998624 -4.8879169 15.40757391 -8.1640625 14.3359375 C-10.39230814 13.34315479 -11.61280374 12.35491314 -13.13671875 10.45703125 C-13.57421875 7.51953125 -13.57421875 7.51953125 -13.13671875 4.45703125 C-9.35347161 -0.46832824 -5.85816668 -0.19312637 0 0 Z " fill="#FBFBFB" transform="translate(761.13671875,-0.45703125)"/>
<path d="M0 0 C3.125 1.6875 3.125 1.6875 5 4 C5.3125 6.75 5.3125 6.75 5 9 C2.125 9.1875 2.125 9.1875 -1 9 C-1.66 8.01 -2.32 7.02 -3 6 C-4.32 6 -5.64 6 -7 6 C-7 6.66 -7 7.32 -7 8 C-6.22914063 8.24234375 -5.45828125 8.4846875 -4.6640625 8.734375 C-3.66117188 9.06953125 -2.65828125 9.4046875 -1.625 9.75 C-0.62726562 10.07484375 0.37046875 10.3996875 1.3984375 10.734375 C4 12 4 12 5.359375 13.94921875 C6.30382427 16.97260818 5.89677042 18.98941358 5 22 C1.86742826 25.07442655 -0.62176032 25.45646164 -4.9375 25.5 C-9.21440893 25.39555778 -10.64686587 25.24447748 -14.25 22.75 C-16 20 -16 20 -16 16 C-13.69 16 -11.38 16 -9 16 C-8.67 16.99 -8.34 17.98 -8 19 C-6.02 19.33 -4.04 19.66 -2 20 C-2 18.68 -2 17.36 -2 16 C-3.03060547 15.83564453 -3.03060547 15.83564453 -4.08203125 15.66796875 C-4.98308594 15.50941406 -5.88414062 15.35085938 -6.8125 15.1875 C-7.70582031 15.03667969 -8.59914063 14.88585937 -9.51953125 14.73046875 C-12.21533242 13.93658715 -13.27171519 13.17411624 -15 11 C-16.14345839 8.36124987 -16.04830626 7.18444208 -15.3125 4.375 C-12.19592365 -1.26451912 -5.72178077 -0.7487306 0 0 Z " fill="#FBFBFB" transform="translate(543,449)"/>
<path d="M0 0 C2.31 0 4.62 0 7 0 C7.33 5.94 7.66 11.88 8 18 C9.65 18.33 11.3 18.66 13 19 C14.51421001 17.48578999 14.21309856 16.07527232 14.31640625 13.96484375 C14.35830078 13.15595703 14.40019531 12.34707031 14.44335938 11.51367188 C14.50233398 10.2384668 14.50233398 10.2384668 14.5625 8.9375 C14.60568359 8.08349609 14.64886719 7.22949219 14.69335938 6.34960938 C14.79976702 4.23327963 14.90041731 2.11666187 15 0 C17.31 0 19.62 0 22 0 C22.0582253 3.08325358 22.09367134 6.16636505 22.125 9.25 C22.14175781 10.12269531 22.15851563 10.99539063 22.17578125 11.89453125 C22.18222656 12.73886719 22.18867188 13.58320313 22.1953125 14.453125 C22.20578613 15.22817383 22.21625977 16.00322266 22.22705078 16.80175781 C21.96953937 19.29491126 21.30553522 20.87165578 20 23 C16.95427309 25.08602303 14.20604386 25.3515912 10.5625 25.4375 C9.17224609 25.49744141 9.17224609 25.49744141 7.75390625 25.55859375 C3.6860883 24.73349025 2.36893609 23.40001979 0 20 C-0.59211859 16.53716027 -0.47327046 13.18734928 -0.3125 9.6875 C-0.28994141 8.75615234 -0.26738281 7.82480469 -0.24414062 6.86523438 C-0.18542078 4.5751604 -0.10336858 2.28842125 0 0 Z " fill="#FDFDFD" transform="translate(464,449)"/>
<path d="M0 0 C2.97 0 5.94 0 9 0 C10.33834986 3.78991493 11.66982663 7.58220836 13 11.375 C13.3815625 12.45523437 13.763125 13.53546875 14.15625 14.6484375 C14.5171875 15.6796875 14.878125 16.7109375 15.25 17.7734375 C15.58515625 18.72653809 15.9203125 19.67963867 16.265625 20.66162109 C17 23 17 23 17 25 C14.36 25 11.72 25 9 25 C8.67 23.68 8.34 22.36 8 21 C5.69 21 3.38 21 1 21 C0.67 22.32 0.34 23.64 0 25 C-2.64 25 -5.28 25 -8 25 C-5.85406445 16.45115106 -3.0505873 8.25949525 0 0 Z M4 8 C3.67 10.31 3.34 12.62 3 15 C3.99 15 4.98 15 6 15 C5.67 12.69 5.34 10.38 5 8 C4.67 8 4.34 8 4 8 Z " fill="#FCFCFC" transform="translate(782,449)"/>
<path d="M0 0 C3.48770261 2.3935214 4.64802051 3.78160945 5.8125 7.8125 C5.874375 8.534375 5.93625 9.25625 6 10 C3.69 10 1.38 10 -1 10 C-1.33 8.68 -1.66 7.36 -2 6 C-6.7897321 5.76571687 -6.7897321 5.76571687 -11 8 C-11.40087331 9.90706576 -11.40087331 9.90706576 -11.25 12 C-11.23453125 12.70125 -11.2190625 13.4025 -11.203125 14.125 C-11.10043334 16.08936628 -11.10043334 16.08936628 -10 18 C-7.67975596 19.01453953 -7.67975596 19.01453953 -5 19 C-4.38125 18.360625 -3.7625 17.72125 -3.125 17.0625 C-1 15 -1 15 2.75 14.75 C3.8225 14.8325 4.895 14.915 6 15 C5.79164195 18.64626587 4.99170491 20.00957126 2.5625 22.8125 C-0.98986291 25.532546 -4.30212679 25.59515531 -8.6640625 25.359375 C-12.71266849 24.73651254 -14.91957049 23.08042951 -17.75 20.25 C-19.817414 16.52865481 -20.42827343 13.08018523 -19.5625 8.875 C-18.44073858 5.40773744 -17.73346953 3.55713017 -14.7578125 1.296875 C-9.9710637 -0.95411735 -5.16766347 -0.7647856 0 0 Z " fill="#FAFAFA" transform="translate(700,0)"/>
<path d="M0 0 C3.48770261 2.3935214 4.64802051 3.78160945 5.8125 7.8125 C5.874375 8.534375 5.93625 9.25625 6 10 C3.69 10 1.38 10 -1 10 C-1.33 8.68 -1.66 7.36 -2 6 C-6.7897321 5.76571687 -6.7897321 5.76571687 -11 8 C-11.40087331 9.90706576 -11.40087331 9.90706576 -11.25 12 C-11.23453125 12.70125 -11.2190625 13.4025 -11.203125 14.125 C-11.10043334 16.08936628 -11.10043334 16.08936628 -10 18 C-7.67975596 19.01453953 -7.67975596 19.01453953 -5 19 C-4.38125 18.360625 -3.7625 17.72125 -3.125 17.0625 C-1 15 -1 15 2.75 14.75 C3.8225 14.8325 4.895 14.915 6 15 C5.79164195 18.64626587 4.99170491 20.00957126 2.5625 22.8125 C-0.98986291 25.532546 -4.30212679 25.59515531 -8.6640625 25.359375 C-12.71266849 24.73651254 -14.91957049 23.08042951 -17.75 20.25 C-19.817414 16.52865481 -20.42827343 13.08018523 -19.5625 8.875 C-18.44073858 5.40773744 -17.73346953 3.55713017 -14.7578125 1.296875 C-9.9710637 -0.95411735 -5.16766347 -0.7647856 0 0 Z " fill="#FAFAFA" transform="translate(596,0)"/>
<path d="M0 0 C2.05078125 0.03255208 4.1015625 0.06510417 6.15234375 0.09765625 C14.15234375 16.94872008 14.15234375 16.94872008 14.15234375 25.09765625 C11.84234375 25.09765625 9.53234375 25.09765625 7.15234375 25.09765625 C6.65734375 22.62265625 6.65734375 22.62265625 6.15234375 20.09765625 C3.51234375 20.09765625 0.87234375 20.09765625 -1.84765625 20.09765625 C-2.17765625 21.74765625 -2.50765625 23.39765625 -2.84765625 25.09765625 C-5.15765625 25.09765625 -7.46765625 25.09765625 -9.84765625 25.09765625 C-8.72378697 19.27396998 -7.15494745 13.71773349 -5.28515625 8.09765625 C-5.0631958 7.42661865 -4.84123535 6.75558105 -4.61254883 6.06420898 C-2.60873772 0.13788254 -2.60873772 0.13788254 0 0 Z M1.15234375 10.09765625 C0.82234375 11.74765625 0.49234375 13.39765625 0.15234375 15.09765625 C1.47234375 15.09765625 2.79234375 15.09765625 4.15234375 15.09765625 C3.82234375 13.44765625 3.49234375 11.79765625 3.15234375 10.09765625 C2.49234375 10.09765625 1.83234375 10.09765625 1.15234375 10.09765625 Z " fill="#FCFCFC" transform="translate(434.84765625,448.90234375)"/>
<path d="M0 0 C2.97 0 5.94 0 9 0 C17 19.23404255 17 19.23404255 17 25 C14.69 25 12.38 25 10 25 C9.505 22.525 9.505 22.525 9 20 C6.36 20 3.72 20 1 20 C0.67 21.65 0.34 23.3 0 25 C-2.31 25 -4.62 25 -7 25 C-6.38574623 19.2073537 -4.84466956 14.05390934 -2.9375 8.5625 C-2.65583984 7.73556641 -2.37417969 6.90863281 -2.08398438 6.05664062 C-1.39482208 4.03587662 -0.6981769 2.01766718 0 0 Z M4 9 C3.67 10.98 3.34 12.96 3 15 C4.32 15 5.64 15 7 15 C6.34 13.02 5.68 11.04 5 9 C4.67 9 4.34 9 4 9 Z " fill="#FDFDFD" transform="translate(634,0)"/>
<path d="M0 0 C5.94 0 11.88 0 18 0 C18 1.98 18 3.96 18 6 C14.7 6 11.4 6 8 6 C8 7.32 8 8.64 8 10 C10.97 10 13.94 10 17 10 C17 11.65 17 13.3 17 15 C14.03 15 11.06 15 8 15 C8 18.3 8 21.6 8 25 C5.36 25 2.72 25 0 25 C0 16.75 0 8.5 0 0 Z " fill="#FBFBFB" transform="translate(582,449)"/>
<path d="M0 0 C5.19689119 -0.70466321 5.19689119 -0.70466321 8 0 C10.21956005 2.40408404 11.62753981 5.04393189 13 8 C13.268125 7.4225 13.53625 6.845 13.8125 6.25 C15.0525647 3.90040373 16.19443016 1.9556766 18 0 C20.95262073 -0.74224846 22.9203373 -0.41758138 26 0 C24.9581082 4.06337801 23.40058886 6.9245347 20.9375 10.25 C17.59256476 15.02731627 17.0239888 19.2546814 17 25 C14.69 25 12.38 25 10 25 C10.020625 23.80375 10.04125 22.6075 10.0625 21.375 C9.42149499 14.89257832 5.53903075 10.14741137 1.93359375 4.94140625 C0 2 0 2 0 0 Z " fill="#FBFBFB" transform="translate(707,0)"/>
<path d="M0 0 C7.26 0 14.52 0 22 0 C22.33 1.65 22.66 3.3 23 5 C22.67 5.33 22.34 5.66 22 6 C19.69 6 17.38 6 15 6 C15 12.27 15 18.54 15 25 C12.69 25 10.38 25 8 25 C8 18.73 8 12.46 8 6 C5.36 6 2.72 6 0 6 C0 4.02 0 2.04 0 0 Z " fill="#FCFCFC" transform="translate(603,449)"/>
<path d="M0 0 C7.59 0 15.18 0 23 0 C23 1.65 23 3.3 23 5 C20.36 5 17.72 5 15 5 C15 11.6 15 18.2 15 25 C12.69 25 10.38 25 8 25 C8 18.4 8 11.8 8 5 C5.36 5 2.72 5 0 5 C0 3.35 0 1.7 0 0 Z " fill="#FEFEFE" transform="translate(476,0)"/>
<path d="M0 0 C2.31 0 4.62 0 7 0 C7 6.27 7 12.54 7 19 C10.3 19 13.6 19 17 19 C17 20.98 17 22.96 17 25 C11.39 25 5.78 25 0 25 C0 16.75 0 8.5 0 0 Z " fill="#FDFDFD" transform="translate(606,0)"/>
<path d="M0 0 C2.31 0 4.62 0 7 0 C7 6.6 7 13.2 7 20 C10.63 20 14.26 20 18 20 C18 21.65 18 23.3 18 25 C12.06 25 6.12 25 0 25 C0 16.75 0 8.5 0 0 Z " fill="#FDFDFD" transform="translate(802,449)"/>
<path d="M0 0 C2.31 0 4.62 0 7 0 C7 8.25 7 16.5 7 25 C4.69 25 2.38 25 0 25 C0 16.75 0 8.5 0 0 Z " fill="#FEFEFE" transform="translate(736,449)"/>
<path d="M0 0 C2.31 0 4.62 0 7 0 C7 8.25 7 16.5 7 25 C4.69 25 2.38 25 0 25 C0 16.75 0 8.5 0 0 Z " fill="#FEFEFE" transform="translate(695,449)"/>
<path d="M0 0 C2.31 0 4.62 0 7 0 C7 8.25 7 16.5 7 25 C4.69 25 2.38 25 0 25 C0 16.75 0 8.5 0 0 Z " fill="#FEFEFE" transform="translate(516,449)"/>
<path d="M0 0 C2.31 0 4.62 0 7 0 C7.05395478 1.62463842 7.09277195 3.24978541 7.125 4.875 C7.14820313 5.77992188 7.17140625 6.68484375 7.1953125 7.6171875 C7 10 7 10 5 12 C2.375 12.125 2.375 12.125 0 12 C0 10.68 0 9.36 0 8 C0.99 8 1.98 8 3 8 C3 7.34 3 6.68 3 6 C2.01 6 1.02 6 0 6 C0 4.02 0 2.04 0 0 Z " fill="#FDFDFD" transform="translate(736,0)"/>
</svg>
